<mxfile host="app.diagrams.net" agent="Mozilla/5.0 (Windows NT 10.0; Win64; x64) AppleWebKit/537.36 (KHTML, like Gecko) Chrome/124.0.0.0 Safari/537.36" version="25.0.1">
  <diagram name="Página-1" id="Y6peqb01C2TaBvuGXnH5">
    <mxGraphModel dx="934" dy="467" grid="1" gridSize="10" guides="1" tooltips="1" connect="1" arrows="1" fold="1" page="1" pageScale="1" pageWidth="827" pageHeight="1169" math="0" shadow="0">
      <root>
        <mxCell id="0" />
        <mxCell id="1" parent="0" />
        <mxCell id="UDIVMU1zz-dbeq_bZYu_-1" value="" style="rounded=0;whiteSpace=wrap;html=1;" vertex="1" parent="1">
          <mxGeometry x="110" y="70" width="670" height="390" as="geometry" />
        </mxCell>
        <mxCell id="UDIVMU1zz-dbeq_bZYu_-2" value="Professor" style="shape=umlActor;verticalLabelPosition=bottom;verticalAlign=top;html=1;outlineConnect=0;" vertex="1" parent="1">
          <mxGeometry x="157" y="90" width="30" height="60" as="geometry" />
        </mxCell>
        <mxCell id="UDIVMU1zz-dbeq_bZYu_-3" value="" style="endArrow=none;dashed=1;html=1;rounded=0;" edge="1" parent="1" source="UDIVMU1zz-dbeq_bZYu_-7">
          <mxGeometry width="50" height="50" relative="1" as="geometry">
            <mxPoint x="167" y="824.4443969726562" as="sourcePoint" />
            <mxPoint x="167" y="180" as="targetPoint" />
          </mxGeometry>
        </mxCell>
        <mxCell id="UDIVMU1zz-dbeq_bZYu_-4" value="" style="endArrow=none;dashed=1;html=1;rounded=0;" edge="1" parent="1" target="UDIVMU1zz-dbeq_bZYu_-7">
          <mxGeometry width="50" height="50" relative="1" as="geometry">
            <mxPoint x="167" y="430" as="sourcePoint" />
            <mxPoint x="167" y="180" as="targetPoint" />
          </mxGeometry>
        </mxCell>
        <mxCell id="UDIVMU1zz-dbeq_bZYu_-5" style="edgeStyle=orthogonalEdgeStyle;rounded=0;orthogonalLoop=1;jettySize=auto;html=1;entryX=0;entryY=0.5;entryDx=0;entryDy=0;" edge="1" parent="1">
          <mxGeometry relative="1" as="geometry">
            <mxPoint x="172" y="208" as="sourcePoint" />
            <mxPoint x="285" y="208" as="targetPoint" />
          </mxGeometry>
        </mxCell>
        <mxCell id="UDIVMU1zz-dbeq_bZYu_-6" value="Cadastrar atividade" style="edgeLabel;html=1;align=center;verticalAlign=middle;resizable=0;points=[];" vertex="1" connectable="0" parent="UDIVMU1zz-dbeq_bZYu_-5">
          <mxGeometry x="-0.2094" y="4" relative="1" as="geometry">
            <mxPoint x="3" y="-4" as="offset" />
          </mxGeometry>
        </mxCell>
        <mxCell id="UDIVMU1zz-dbeq_bZYu_-7" value="" style="rounded=0;whiteSpace=wrap;html=1;" vertex="1" parent="1">
          <mxGeometry x="162" y="190" width="10" height="160" as="geometry" />
        </mxCell>
        <mxCell id="UDIVMU1zz-dbeq_bZYu_-8" value="" style="ellipse;shape=umlEntity;whiteSpace=wrap;html=1;" vertex="1" parent="1">
          <mxGeometry x="275" y="100" width="30" height="30" as="geometry" />
        </mxCell>
        <mxCell id="UDIVMU1zz-dbeq_bZYu_-9" value="" style="endArrow=none;dashed=1;html=1;rounded=0;" edge="1" parent="1">
          <mxGeometry width="50" height="50" relative="1" as="geometry">
            <mxPoint x="291" y="420" as="sourcePoint" />
            <mxPoint x="291" y="180" as="targetPoint" />
          </mxGeometry>
        </mxCell>
        <mxCell id="UDIVMU1zz-dbeq_bZYu_-10" value="Tela de gerenciamento de atividades" style="text;html=1;align=center;verticalAlign=middle;whiteSpace=wrap;rounded=0;" vertex="1" parent="1">
          <mxGeometry x="260" y="140" width="60" height="30" as="geometry" />
        </mxCell>
        <mxCell id="UDIVMU1zz-dbeq_bZYu_-11" value="" style="ellipse;shape=umlEntity;whiteSpace=wrap;html=1;" vertex="1" parent="1">
          <mxGeometry x="466" y="100" width="30" height="30" as="geometry" />
        </mxCell>
        <mxCell id="UDIVMU1zz-dbeq_bZYu_-12" value="Atividade" style="text;html=1;align=center;verticalAlign=middle;whiteSpace=wrap;rounded=0;" vertex="1" parent="1">
          <mxGeometry x="451" y="140" width="60" height="30" as="geometry" />
        </mxCell>
        <mxCell id="UDIVMU1zz-dbeq_bZYu_-13" value="" style="endArrow=none;dashed=1;html=1;rounded=0;entryX=0.515;entryY=0.915;entryDx=0;entryDy=0;entryPerimeter=0;" edge="1" parent="1" source="UDIVMU1zz-dbeq_bZYu_-25" target="UDIVMU1zz-dbeq_bZYu_-12">
          <mxGeometry width="50" height="50" relative="1" as="geometry">
            <mxPoint x="482" y="580" as="sourcePoint" />
            <mxPoint x="482" y="180" as="targetPoint" />
          </mxGeometry>
        </mxCell>
        <mxCell id="UDIVMU1zz-dbeq_bZYu_-14" value="" style="shape=umlBoundary;whiteSpace=wrap;html=1;" vertex="1" parent="1">
          <mxGeometry x="658" y="100" width="37.5" height="30" as="geometry" />
        </mxCell>
        <mxCell id="UDIVMU1zz-dbeq_bZYu_-15" value="" style="endArrow=none;dashed=1;html=1;rounded=0;" edge="1" parent="1">
          <mxGeometry width="50" height="50" relative="1" as="geometry">
            <mxPoint x="677.75" y="429.9999999999999" as="sourcePoint" />
            <mxPoint x="678" y="180" as="targetPoint" />
          </mxGeometry>
        </mxCell>
        <mxCell id="UDIVMU1zz-dbeq_bZYu_-16" value="" style="rounded=0;whiteSpace=wrap;html=1;" vertex="1" parent="1">
          <mxGeometry x="672.75" y="189" width="10" height="191" as="geometry" />
        </mxCell>
        <mxCell id="UDIVMU1zz-dbeq_bZYu_-17" value="Banco de dados" style="text;html=1;align=center;verticalAlign=middle;whiteSpace=wrap;rounded=0;" vertex="1" parent="1">
          <mxGeometry x="647.75" y="140" width="60" height="30" as="geometry" />
        </mxCell>
        <mxCell id="UDIVMU1zz-dbeq_bZYu_-18" value="Cadastro realizado" style="html=1;verticalAlign=bottom;endArrow=open;dashed=1;endSize=8;curved=0;rounded=0;entryX=1.323;entryY=0.565;entryDx=0;entryDy=0;entryPerimeter=0;" edge="1" parent="1">
          <mxGeometry relative="1" as="geometry">
            <mxPoint x="287" y="295" as="sourcePoint" />
            <mxPoint x="172" y="295" as="targetPoint" />
          </mxGeometry>
        </mxCell>
        <mxCell id="UDIVMU1zz-dbeq_bZYu_-19" style="edgeStyle=orthogonalEdgeStyle;rounded=0;orthogonalLoop=1;jettySize=auto;html=1;exitX=0.951;exitY=0.144;exitDx=0;exitDy=0;exitPerimeter=0;" edge="1" parent="1" source="UDIVMU1zz-dbeq_bZYu_-21" target="UDIVMU1zz-dbeq_bZYu_-25">
          <mxGeometry relative="1" as="geometry">
            <Array as="points">
              <mxPoint x="295" y="239" />
            </Array>
          </mxGeometry>
        </mxCell>
        <mxCell id="UDIVMU1zz-dbeq_bZYu_-20" value="Envia formulário de cadastro" style="edgeLabel;html=1;align=center;verticalAlign=middle;resizable=0;points=[];" vertex="1" connectable="0" parent="UDIVMU1zz-dbeq_bZYu_-19">
          <mxGeometry x="0.13" y="-1" relative="1" as="geometry">
            <mxPoint x="-17" y="-10" as="offset" />
          </mxGeometry>
        </mxCell>
        <mxCell id="UDIVMU1zz-dbeq_bZYu_-21" value="" style="rounded=0;whiteSpace=wrap;html=1;" vertex="1" parent="1">
          <mxGeometry x="285" y="190" width="10" height="160" as="geometry" />
        </mxCell>
        <mxCell id="UDIVMU1zz-dbeq_bZYu_-22" value="" style="endArrow=none;dashed=1;html=1;rounded=0;" edge="1" parent="1" target="UDIVMU1zz-dbeq_bZYu_-25">
          <mxGeometry width="50" height="50" relative="1" as="geometry">
            <mxPoint x="482" y="430" as="sourcePoint" />
            <mxPoint x="482" y="180" as="targetPoint" />
          </mxGeometry>
        </mxCell>
        <mxCell id="UDIVMU1zz-dbeq_bZYu_-23" style="edgeStyle=orthogonalEdgeStyle;rounded=0;orthogonalLoop=1;jettySize=auto;html=1;" edge="1" parent="1" source="UDIVMU1zz-dbeq_bZYu_-25" target="UDIVMU1zz-dbeq_bZYu_-16">
          <mxGeometry relative="1" as="geometry">
            <Array as="points">
              <mxPoint x="640" y="240" />
              <mxPoint x="640" y="240" />
            </Array>
          </mxGeometry>
        </mxCell>
        <mxCell id="UDIVMU1zz-dbeq_bZYu_-24" value="register(atividade)" style="edgeLabel;html=1;align=center;verticalAlign=middle;resizable=0;points=[];" vertex="1" connectable="0" parent="UDIVMU1zz-dbeq_bZYu_-23">
          <mxGeometry x="-0.2774" y="3" relative="1" as="geometry">
            <mxPoint x="-14" y="-6" as="offset" />
          </mxGeometry>
        </mxCell>
        <mxCell id="UDIVMU1zz-dbeq_bZYu_-25" value="" style="rounded=0;whiteSpace=wrap;html=1;" vertex="1" parent="1">
          <mxGeometry x="476" y="189" width="10" height="141" as="geometry" />
        </mxCell>
        <mxCell id="UDIVMU1zz-dbeq_bZYu_-26" style="edgeStyle=orthogonalEdgeStyle;rounded=0;orthogonalLoop=1;jettySize=auto;html=1;entryX=1;entryY=0.5;entryDx=0;entryDy=0;" edge="1" parent="1" source="UDIVMU1zz-dbeq_bZYu_-25" target="UDIVMU1zz-dbeq_bZYu_-28">
          <mxGeometry relative="1" as="geometry">
            <Array as="points">
              <mxPoint x="481" y="180" />
              <mxPoint x="510" y="180" />
              <mxPoint x="510" y="213" />
            </Array>
          </mxGeometry>
        </mxCell>
        <mxCell id="UDIVMU1zz-dbeq_bZYu_-27" value="throw exception&lt;div&gt;&quot;Atividade não cadastrada&quot;&lt;/div&gt;" style="edgeLabel;html=1;align=center;verticalAlign=middle;resizable=0;points=[];" vertex="1" connectable="0" parent="UDIVMU1zz-dbeq_bZYu_-26">
          <mxGeometry x="0.3241" relative="1" as="geometry">
            <mxPoint x="-100" y="-21" as="offset" />
          </mxGeometry>
        </mxCell>
        <mxCell id="UDIVMU1zz-dbeq_bZYu_-28" value="" style="rounded=0;whiteSpace=wrap;html=1;" vertex="1" parent="1">
          <mxGeometry x="483" y="208" width="10" height="11" as="geometry" />
        </mxCell>
        <mxCell id="UDIVMU1zz-dbeq_bZYu_-30" value="" style="ellipse;shape=umlEntity;whiteSpace=wrap;html=1;" vertex="1" parent="1">
          <mxGeometry x="574" y="100" width="30" height="30" as="geometry" />
        </mxCell>
        <mxCell id="UDIVMU1zz-dbeq_bZYu_-31" value="Turma" style="text;html=1;align=center;verticalAlign=middle;whiteSpace=wrap;rounded=0;" vertex="1" parent="1">
          <mxGeometry x="559" y="140" width="60" height="30" as="geometry" />
        </mxCell>
        <mxCell id="UDIVMU1zz-dbeq_bZYu_-32" value="" style="endArrow=none;dashed=1;html=1;rounded=0;entryX=0.515;entryY=0.915;entryDx=0;entryDy=0;entryPerimeter=0;" edge="1" parent="1" source="UDIVMU1zz-dbeq_bZYu_-34" target="UDIVMU1zz-dbeq_bZYu_-31">
          <mxGeometry width="50" height="50" relative="1" as="geometry">
            <mxPoint x="590" y="580" as="sourcePoint" />
            <mxPoint x="590" y="180" as="targetPoint" />
          </mxGeometry>
        </mxCell>
        <mxCell id="UDIVMU1zz-dbeq_bZYu_-33" value="" style="endArrow=none;dashed=1;html=1;rounded=0;" edge="1" parent="1" target="UDIVMU1zz-dbeq_bZYu_-34">
          <mxGeometry width="50" height="50" relative="1" as="geometry">
            <mxPoint x="590" y="430" as="sourcePoint" />
            <mxPoint x="590" y="180" as="targetPoint" />
          </mxGeometry>
        </mxCell>
        <mxCell id="UDIVMU1zz-dbeq_bZYu_-38" style="edgeStyle=orthogonalEdgeStyle;rounded=0;orthogonalLoop=1;jettySize=auto;html=1;entryX=1;entryY=0.5;entryDx=0;entryDy=0;" edge="1" parent="1" source="UDIVMU1zz-dbeq_bZYu_-34" target="UDIVMU1zz-dbeq_bZYu_-37">
          <mxGeometry relative="1" as="geometry">
            <Array as="points">
              <mxPoint x="589" y="280" />
              <mxPoint x="619" y="280" />
              <mxPoint x="619" y="315" />
            </Array>
          </mxGeometry>
        </mxCell>
        <mxCell id="UDIVMU1zz-dbeq_bZYu_-34" value="" style="rounded=0;whiteSpace=wrap;html=1;" vertex="1" parent="1">
          <mxGeometry x="584" y="292" width="10" height="100" as="geometry" />
        </mxCell>
        <mxCell id="UDIVMU1zz-dbeq_bZYu_-37" value="" style="rounded=0;whiteSpace=wrap;html=1;" vertex="1" parent="1">
          <mxGeometry x="590" y="309" width="10" height="11" as="geometry" />
        </mxCell>
        <mxCell id="UDIVMU1zz-dbeq_bZYu_-39" value="throw exception&lt;div&gt;&quot;Atividade não cadastrada&quot;&lt;/div&gt;" style="edgeLabel;html=1;align=center;verticalAlign=middle;resizable=0;points=[];" vertex="1" connectable="0" parent="1">
          <mxGeometry x="695.5" y="292" as="geometry" />
        </mxCell>
        <mxCell id="UDIVMU1zz-dbeq_bZYu_-40" style="edgeStyle=orthogonalEdgeStyle;rounded=0;orthogonalLoop=1;jettySize=auto;html=1;entryX=0.065;entryY=0.211;entryDx=0;entryDy=0;entryPerimeter=0;exitX=0.965;exitY=0.884;exitDx=0;exitDy=0;exitPerimeter=0;" edge="1" parent="1" source="UDIVMU1zz-dbeq_bZYu_-25" target="UDIVMU1zz-dbeq_bZYu_-34">
          <mxGeometry relative="1" as="geometry" />
        </mxCell>
        <mxCell id="UDIVMU1zz-dbeq_bZYu_-43" value="&lt;span style=&quot;font-size: 11px; text-wrap: nowrap; background-color: rgb(255, 255, 255);&quot;&gt;register(atividade)&lt;/span&gt;" style="text;html=1;align=center;verticalAlign=middle;whiteSpace=wrap;rounded=0;" vertex="1" parent="1">
          <mxGeometry x="510" y="309" width="45" height="30" as="geometry" />
        </mxCell>
      </root>
    </mxGraphModel>
  </diagram>
</mxfile>
